<svg xmlns="http://www.w3.org/2000/svg" version="1.1" xmlns:xlink="http://www.w3.org/1999/xlink" xmlns:svgjs="http://svgjs.dev/svgjs" width="1500" height="306" viewBox="0 0 1500 306"><g transform="matrix(1,0,0,1,-0.9090909090909918,-0.3438536358957833)"><svg viewBox="0 0 396 81" data-background-color="#ffffff" preserveAspectRatio="xMidYMid meet" height="306" width="1500" xmlns="http://www.w3.org/2000/svg" xmlns:xlink="http://www.w3.org/1999/xlink"><g id="tight-bounds" transform="matrix(1,0,0,1,0.2400000000000091,0.09102008009006113)"><svg viewBox="0 0 395.52 80.81795983981986" height="80.81795983981986" width="395.52"><g><svg viewBox="0 0 500.08032143638917 102.18312938544274" height="80.81795983981986" width="395.52"><g transform="matrix(1,0,0,1,0,14.122270414341223)"><svg viewBox="0 0 395.52 73.9385885567603" height="73.9385885567603" width="395.52"><g id="textblocktransform"><svg viewBox="0 0 395.52 73.9385885567603" height="73.9385885567603" width="395.52" id="textblock"><g><svg viewBox="0 0 395.52 45.90737175857773" height="45.90737175857773" width="395.52"><g transform="matrix(1,0,0,1,0,0)"><svg width="395.52" viewBox="2.64 -39.06 431.15000000000003 50.050000000000004" height="45.90737175857773" data-palette-color="#ff0000"><path d="M8.4-12.94L8.4-12.94Q8.08-10.4 8.08-8.9 8.08-7.4 8.45-6.13 8.81-4.86 9.5-3.93L9.5-3.93Q10.96-1.95 13.21-1.95L13.21-1.95Q17.5-1.95 17.5-6.69L17.5-6.69Q17.5-10.5 13.09-14.77L13.09-14.77 10.55-17.24Q7.2-20.46 5.98-22.41L5.98-22.41Q3.56-26.27 3.56-30.08L3.56-30.08Q3.56-33.18 5.57-35.28L5.57-35.28Q7.98-37.84 12.52-37.84L12.52-37.84Q14.31-37.84 15.21-37.67L15.21-37.67Q16.89-37.35 17.46-37.35L17.46-37.35Q18.87-37.35 19.65-38.23L19.65-38.23Q19.95-38.55 20.29-39.06L20.29-39.06Q22.07-38.06 22.07-31.71L22.07-31.71Q22.07-27.66 21.26-25.73L21.26-25.73Q21-25.07 20.65-24.9L20.65-24.9Q20.26-28.59 18.26-31.49L18.26-31.49Q15.92-34.91 12.84-34.91L12.84-34.91Q10.21-34.91 9.59-32.5L9.59-32.5Q9.42-31.81 9.42-30.8 9.42-29.79 10.03-28.49 10.64-27.2 11.63-25.92 12.62-24.63 13.92-23.34L13.92-23.34Q17.82-19.34 19.1-17.92 20.39-16.5 21.39-14.99L21.39-14.99Q23.58-11.6 23.58-8.42L23.58-8.42Q23.58-4.59 20.61-2.08L20.61-2.08Q17.53 0.49 12.7 0.49L12.7 0.49Q8.69 0.49 5.81-1.51L5.81-1.51Q2.64-3.71 2.64-7.32L2.64-7.32Q3.59-10.72 6.79-12.3L6.79-12.3Q7.64-12.74 8.4-12.94ZM35.64 0L28.44 0Q29.56-3.86 29.56-13.26L29.56-13.26Q29.56-19.95 28.49-22.39L28.49-22.39Q28.05-23.39 26.93-24.66L26.93-24.66 35.59-24.66Q35.15-23.12 34.89-20.43L34.89-20.43Q37.18-23.32 41.28-24.51L41.28-24.51Q43.04-25.02 43.85-26.12L43.85-26.12Q44.65-24.19 44.65-22.8 44.65-21.41 44.5-20.23 44.36-19.04 44.06-17.92L44.06-17.92Q43.43-15.5 42.38-14.16L42.38-14.16Q41.48-18.92 39.57-19.73L39.57-19.73Q37.38-20.68 35.28-17.14L35.28-17.14Q34.84-16.41 34.54-15.58L34.54-15.58Q34.52-15.01 34.52-14.43 34.52-13.84 34.52-13.26L34.52-13.26Q34.52-3.86 35.64 0L35.64 0ZM55.65-31.23Q55.15-30.42 54.44-29.87 53.73-29.32 52.83-29.32 51.92-29.32 51.22-29.87 50.51-30.42 50.02-31.23L50.02-31.23Q49.02-32.89 49.02-34.74L49.02-34.74Q49.02-36.99 51.07-37.74L51.07-37.74Q51.8-38.01 52.85-38.01L52.85-38.01Q55.76-38.01 56.46-35.96L56.46-35.96Q56.68-35.38 56.68-34.66 56.68-33.94 56.42-32.98 56.15-32.03 55.65-31.23ZM56.22 0L49.02 0Q50.14-3.86 50.14-13.26L50.14-13.26Q50.14-19.87 48.97-22.36L48.97-22.36Q48.68-23 48.31-23.54L48.31-23.54 47.5-24.66 56.17-24.66Q55.1-20.63 55.1-12.24 55.1-3.86 56.22 0L56.22 0ZM76.21-37.35L84.73-37.35Q84.32-36.01 84.32-34.81L84.32-34.81Q84.32-32.79 85.02-28.96L85.02-28.96Q88-13.99 88.49-11.67L88.49-11.67Q89.52-6.88 89.75-5.87 89.98-4.86 90.18-3.93L90.18-3.93Q94.72-9.33 96.45-18.65L96.45-18.65Q97.08-22.07 97.08-25.1 97.08-28.13 96.96-29.79 96.84-31.45 96.55-32.81L96.55-32.81Q95.96-35.55 94.69-37.38L94.69-37.38 103.21-37.38Q102.7-35.91 102.68-34.45 102.65-32.98 102.58-29.99 102.5-27 101.82-22.88 101.14-18.75 100.11-15.5 99.09-12.26 97.84-9.79 96.6-7.32 95.35-5.47 94.11-3.61 92.98-2.29L92.98-2.29 91.08 0 83.39 0Q83.75-0.93 83.75-1.81L83.75-1.81Q83.75-3.25 83.36-6.03L83.36-6.03Q79.19-33.91 76.21-37.35L76.21-37.35ZM114.21-31.23Q113.71-30.42 113-29.87 112.29-29.32 111.39-29.32 110.49-29.32 109.78-29.87 109.07-30.42 108.58-31.23L108.58-31.23Q107.58-32.89 107.58-34.74L107.58-34.74Q107.58-36.99 109.63-37.74L109.63-37.74Q110.36-38.01 111.41-38.01L111.41-38.01Q114.32-38.01 115.03-35.96L115.03-35.96Q115.25-35.38 115.25-34.66 115.25-33.94 114.98-32.98 114.71-32.03 114.21-31.23ZM114.78 0L107.58 0Q108.7-3.86 108.7-13.26L108.7-13.26Q108.7-19.87 107.53-22.36L107.53-22.36Q107.24-23 106.87-23.54L106.87-23.54 106.07-24.66 114.73-24.66Q113.66-20.63 113.66-12.24 113.66-3.86 114.78 0L114.78 0ZM128.26 0L121.25 0Q122.37-3.86 122.37-13.26L122.37-13.26Q122.37-19.95 121.2-22.39L121.2-22.39Q120.91-23 120.54-23.54L120.54-23.54 119.74-24.66 128.21-24.66Q127.84-23.44 127.72-22.36L127.72-22.36 127.52-20.61Q130.48-25.15 135.04-25.15L135.04-25.15Q138-25.15 139.66-22.85L139.66-22.85Q141.27-20.61 141.27-16.77L141.27-16.77 141.27-14.16Q141.27-7.45 141.39-5.96 141.51-4.47 141.59-3.69 141.66-2.91 141.76-2.29L141.76-2.29Q141.93-1.15 142.27 0L142.27 0 135.12 0Q136.24-3.86 136.24-13.26L136.24-13.26Q136.24-17.02 135.76-18.41 135.29-19.8 134.63-20.4 133.97-21 132.9-21L132.9-21Q130.92-21 129.31-19.43L129.31-19.43Q127.91-18.09 127.18-16.02L127.18-16.02Q127.13-15.36 127.13-14.65L127.13-14.65 127.13-13.26Q127.13-3.86 128.26 0L128.26 0ZM166.61-13.04L166.61-13.04 166.54-8.35Q166.54-3.98 167.34-2.39L167.34-2.39Q167.83-1.44 168.49-0.93L168.49-0.93 169.64 0 162.56 0 161.8-2.83Q159.04 0.49 153.94 0.49L153.94 0.49Q151.03 0.49 149.25-1.46L149.25-1.46Q147.69-3.22 147.69-5.62 147.69-8.01 148.82-9.79 149.96-11.57 151.81-12.74L151.81-12.74Q155.48-15.01 161.02-15.11L161.02-15.11 161.02-15.38Q161.02-21.31 159.19-22.34L159.19-22.34Q158.53-22.71 157.49-22.71 156.45-22.71 155.43-22.02 154.4-21.34 153.57-20.26L153.57-20.26Q151.91-18.09 151.2-15.14L151.2-15.14Q149.03-16.43 149.03-20.09L149.03-20.09Q149.03-21.58 149.42-23.44L149.42-23.44Q150.35-23.44 151.18-23.71L151.18-23.71 153.06-24.29Q155.82-25.15 158.45-25.15 161.09-25.15 162.67-24.37 164.24-23.58 165.12-22.05L165.12-22.05Q166.61-19.43 166.61-13.04ZM152.96-5.13Q152.96-3.61 153.66-2.78 154.35-1.95 155.4-1.95 156.45-1.95 157.43-2.5 158.41-3.05 159.19-4L159.19-4Q161.02-6.18 161.02-9.11L161.02-9.11 161.02-12.72Q157.6-12.4 155.38-10.45L155.38-10.45Q152.96-8.35 152.96-5.13L152.96-5.13ZM186.75-7.35L186.75-8.08 186.77-13.5Q186.77-18.6 186.5-20.17 186.23-21.73 186.08-22.35 185.92-22.97 185.7-23.51L185.7-23.51 185.23-24.66 192.44-24.66 192.31-23.54Q192.17-22.36 192.12-20.12L192.12-20.12 192.02-16.41Q191.9-12.13 191.9-8.42 191.9-4.71 191.45-2.08 191 0.56 190.24 2.56 189.48 4.57 188.51 6.02 187.53 7.47 186.45 8.45L186.45 8.45Q184.6 10.21 182.3 10.99L182.3 10.99Q181.82 10.79 181.36 10.27 180.91 9.74 180.81 9.28L180.81 9.28Q182.96 8.18 184.26 5.91L184.26 5.91Q186.09 2.69 186.58-3.39L186.58-3.39Q183.74 0.49 179.62 0.49L179.62 0.49Q176.69 0.49 175.08-1.81L175.08-1.81Q173.54-4.03 173.54-7.91L173.54-7.91 173.54-11.21Q173.54-12.3 173.52-13.45L173.52-13.45 173.52-15.67Q173.47-17.8 173.36-18.98 173.25-20.17 173.11-20.96 172.98-21.75 172.78-22.38 172.59-23 172.34-23.54L172.34-23.54 171.81-24.66 179.25-24.66Q178.62-21.17 178.62-11.45L178.62-11.45Q178.62-7.5 179.03-6.18 179.45-4.86 180.07-4.26 180.69-3.66 181.67-3.66 182.65-3.66 183.39-3.97 184.14-4.27 184.75-4.79L184.75-4.79Q185.94-5.71 186.75-7.35L186.75-7.35ZM187.53-9.42L187.68-10.01 187.53-9.42ZM216.38-13.04L216.38-13.04 216.31-8.35Q216.31-3.98 217.12-2.39L217.12-2.39Q217.6-1.44 218.26-0.93L218.26-0.93 219.41 0 212.33 0 211.57-2.83Q208.82 0.49 203.71 0.49L203.71 0.49Q200.81 0.49 199.03-1.46L199.03-1.46Q197.46-3.22 197.46-5.62 197.46-8.01 198.6-9.79 199.73-11.57 201.59-12.74L201.59-12.74Q205.25-15.01 210.79-15.11L210.79-15.11 210.79-15.38Q210.79-21.31 208.96-22.34L208.96-22.34Q208.3-22.71 207.27-22.71 206.23-22.71 205.2-22.02 204.18-21.34 203.35-20.26L203.35-20.26Q201.69-18.09 200.98-15.14L200.98-15.14Q198.81-16.43 198.81-20.09L198.81-20.09Q198.81-21.58 199.2-23.44L199.2-23.44Q200.12-23.44 200.95-23.71L200.95-23.71 202.83-24.29Q205.59-25.15 208.23-25.15 210.87-25.15 212.44-24.37 214.02-23.58 214.89-22.05L214.89-22.05Q216.38-19.43 216.38-13.04ZM202.74-5.13Q202.74-3.61 203.43-2.78 204.13-1.95 205.18-1.95 206.23-1.95 207.2-2.5 208.18-3.05 208.96-4L208.96-4Q210.79-6.18 210.79-9.11L210.79-9.11 210.79-12.72Q207.37-12.4 205.15-10.45L205.15-10.45Q202.74-8.35 202.74-5.13L202.74-5.13ZM229.42-12.16L229.42-10.35Q229.42-3.27 230.37 0L230.37 0 223.17 0Q223.85-2.37 224.02-5.59L224.02-5.59Q224.39-13.38 224.39-17.68 224.39-21.97 224.36-23.45 224.34-24.93 224.32-26.42L224.32-26.42Q224.17-31.67 223.82-33.09 223.46-34.52 223.14-35.16L223.14-35.16Q222.68-36.18 221.65-37.35L221.65-37.35 230.57-37.35Q229.88-34.89 229.76-32.69L229.76-32.69 229.59-29.15Q229.42-25.12 229.42-23.02 229.42-20.92 229.45-20.19 229.49-19.46 229.64-18.99L229.64-18.99Q229.93-18.02 231.12-18.07 232.3-18.12 233.25-18.57 234.2-19.02 234.81-19.73L234.81-19.73Q236.03-21.09 236.03-22.63 236.03-24.17 235.67-24.66L235.67-24.66 242.72-24.66Q242.43-24.07 242.2-23.47 241.97-22.88 241.7-22.27L241.7-22.27Q239.97-18.41 236.23-16.67L236.23-16.67Q236.47-11.62 239.55-6.54L239.55-6.54Q242.46-1.83 245.95 0L245.95 0 237.77 0Q235.33-1.17 233.81-7.86L233.81-7.86Q233.3-10.13 233.13-12.23 232.96-14.33 232.59-14.98 232.23-15.63 231.27-15.63L231.27-15.63Q229.42-15.63 229.42-12.16L229.42-12.16ZM281.37-14.53L281.37-14.53 281.34-21.22Q281.34-22.58 280.9-23.07L280.9-23.07Q280.1-23.97 277.92-23.97L277.92-23.97 274.07-23.97Q271.04-23.97 270.75-22.27L270.75-22.27Q270.67-21.78 270.67-21.22L270.67-21.22 270.65-13.89Q270.65-4.42 271.63-2.03L271.63-2.03Q272.02-1.1 272.85 0L272.85 0 263.69 0Q264.47-1.86 264.61-3.1 264.74-4.35 264.89-6.18L264.89-6.18Q265.16-10.01 265.16-14.94 265.16-19.87 265.13-21.74 265.11-23.61 265.08-25.39L265.08-25.39Q264.91-32.79 264.62-34.27 264.33-35.74 264.13-36.25L264.13-36.25 263.69-37.35 272.85-37.35Q271.09-35.4 270.89-32.08L270.89-32.08Q270.82-31.08 270.82-29.98 270.82-28.88 271.03-28.26 271.23-27.64 271.72-27.34L271.72-27.34Q272.38-26.9 274.82-26.9L274.82-26.9 277.14-26.9Q279.63-26.9 280.22-27.27L280.22-27.27Q281.2-27.91 281.2-30.03L281.2-30.03Q281.2-35.23 279.14-37.35L279.14-37.35 288.3-37.35Q287.57-35.74 287.41-34.38 287.25-33.01 287.18-31.75 287.1-30.49 287.03-28.83 286.96-27.17 286.91-25.39L286.91-25.39Q286.84-21.24 286.84-17.87L286.84-17.87Q286.84-4.17 287.86-1.1L287.86-1.1Q288.03-0.59 288.3 0L288.3 0 279.14 0Q280.37-1.64 280.63-2.82 280.9-4 281.05-5.62L281.05-5.62Q281.37-8.72 281.37-14.53ZM304.58-22.71Q302.38-22.71 301.42-20.51 300.46-18.31 300.46-13.11L300.46-13.11Q300.46-1.95 304.58-1.95L304.58-1.95Q306.78-1.95 307.74-4.93 308.71-7.91 308.71-13.11 308.71-18.31 307.74-20.51 306.78-22.71 304.58-22.71L304.58-22.71ZM294.3-14.04Q294.3-25.15 304.58-25.15 314.86-25.15 314.86-14.04L314.86-14.04Q314.86-7.3 312.03-3.37L312.03-3.37Q309.27 0.49 304.58 0.49 299.89 0.49 297.14-3.37L297.14-3.37Q294.3-7.3 294.3-14.04L294.3-14.04ZM336.07-26.1L336.07-26.1Q336.73-24.63 336.73-23.14 336.73-21.66 336.6-20.68 336.46-19.7 336.2-18.8L336.2-18.8Q335.59-16.75 334.46-15.65L334.46-15.65Q333.71-19.43 332.81-20.56 331.92-21.68 331.03-22.07 330.14-22.46 329.14-22.46 328.14-22.46 327.5-22.27 326.87-22.07 326.41-21.7L326.41-21.7Q325.36-20.9 325.36-19.87 325.36-18.85 325.87-18.1 326.38-17.36 327.22-16.71 328.07-16.06 329.14-15.45L329.14-15.45 331.34-14.21Q334.17-12.62 335.22-11.57L335.22-11.57Q337.29-9.5 337.29-7.2L337.29-7.2Q337.29-4.2 335.24-2.15L335.24-2.15Q332.66 0.49 327.48 0.49L327.48 0.49Q322.77 0.49 320.4-1.71L320.4-1.71Q319.72-2.34 319.42-2.98L319.42-2.98Q319.62-4.81 321.06-6.42L321.06-6.42Q322.45-7.98 323.77-8.23L323.77-8.23Q323.67-7.91 323.67-7.28 323.67-6.64 324.04-5.7 324.4-4.76 325.09-3.96L325.09-3.96Q326.63-2.1 328.55-2.1 330.48-2.1 331.39-2.98 332.29-3.86 332.29-4.98 332.29-6.1 331.78-6.86 331.26-7.62 330.42-8.28 329.58-8.94 328.51-9.55L328.51-9.55 326.31-10.79Q323.5-12.45 322.45-13.62L322.45-13.62Q320.35-15.97 320.35-18.73L320.35-18.73Q320.35-21.63 322.79-23.44L322.79-23.44Q325.11-25.15 328.58-25.15L328.58-25.15 332.88-24.85Q334.44-24.85 335.05-25.23 335.66-25.61 336.07-26.1ZM348.11-23.1L348.11-23.1Q350.84-25.15 354.94-25.15L354.94-25.15Q360.75-25.15 362.54-20.34L362.54-20.34Q363.12-18.75 363.12-16.35 363.12-13.94 362.57-11.66 362.02-9.38 361.05-7.54 360.07-5.71 358.74-4.32 357.41-2.93 355.85-2L355.85-2Q352.72-0.12 349.21-0.02L349.21-0.02Q349.25 1.29 349.35 2.56L349.35 2.56 349.6 5.15Q349.82 7.79 351.11 9.62L351.11 9.62 351.94 10.74 343.03 10.74Q343.71 8.4 343.82 6.05 343.93 3.71 343.99 2.04 344.05 0.37 344.08-1.42L344.08-1.42Q344.18-5.57 344.18-8.69L344.18-8.69Q344.18-18.75 343.54-21L343.54-21Q343.15-22.39 342.54-23.22L342.54-23.22 341.52-24.66 348.08-24.66Q347.94-24.17 348.11-23.1ZM357.02-15.7L357.02-15.7Q357.02-22.71 353.48-22.71L353.48-22.71Q351.72-22.71 350.55-21.14L350.55-21.14Q349.28-19.46 349.28-16.53L349.28-16.53 349.11-4.96 349.11-3.61Q349.11-2.95 349.13-2.27L349.13-2.27Q352.67-2.81 354.87-6.52L354.87-6.52Q357.02-10.18 357.02-15.7ZM376.22-31.23Q375.72-30.42 375.01-29.87 374.3-29.32 373.4-29.32 372.49-29.32 371.79-29.87 371.08-30.42 370.59-31.23L370.59-31.23Q369.59-32.89 369.59-34.74L369.59-34.74Q369.59-36.99 371.64-37.74L371.64-37.74Q372.37-38.01 373.42-38.01L373.42-38.01Q376.33-38.01 377.04-35.96L377.04-35.96Q377.25-35.38 377.25-34.66 377.25-33.94 376.99-32.98 376.72-32.03 376.22-31.23ZM376.79 0L369.59 0Q370.71-3.86 370.71-13.26L370.71-13.26Q370.71-19.87 369.54-22.36L369.54-22.36Q369.25-23 368.88-23.54L368.88-23.54 368.08-24.66 376.74-24.66Q375.67-20.63 375.67-12.24 375.67-3.86 376.79 0L376.79 0ZM390.19-34.42L390.19-34.42Q389.68-32.54 389.68-29.92 389.68-27.29 389.79-26.56 389.9-25.83 390.14-25.39L390.14-25.39Q390.61-24.66 391.95-24.66L391.95-24.66 398.49-24.66Q398.49-23.29 397.83-22.56L397.83-22.56Q396.64-21.24 394.9-21.24L394.9-21.24Q394.05-21.24 393.39-21.48L393.39-21.48Q392.19-21.97 391.53-21.97 390.88-21.97 390.46-21.72 390.05-21.46 389.8-20.97L389.8-20.97Q389.36-20.09 389.36-17.14 389.36-14.18 389.54-11.08 389.73-7.98 390.46-5.9 391.19-3.81 392.68-2.76 394.17-1.71 396.78-1.71L396.78-1.71Q396.78-0.95 395.76 0.1L395.76 0.1Q395.49 0.39 395.29 0.49L395.29 0.49Q390.97 0.49 388.82-0.54L388.82-0.54Q386.36-1.76 385.31-4.88L385.31-4.88Q384.26-8.06 384.26-14.28L384.26-14.28Q384.26-19.73 383.97-20.72 383.67-21.7 383.43-22.02L383.43-22.02Q383.14-22.39 382.01-22.92L382.01-22.92Q383.53-24.07 385.02-27.2L385.02-27.2 386.24-29.76Q387.53-32.69 388.45-33.56 389.36-34.42 390.19-34.42ZM419.22-13.04L419.22-13.04 419.14-8.35Q419.14-3.98 419.95-2.39L419.95-2.39Q420.44-1.44 421.1-0.93L421.1-0.93 422.25 0 415.16 0 414.41-2.83Q411.65 0.49 406.55 0.49L406.55 0.49Q403.64 0.49 401.86-1.46L401.86-1.46Q400.3-3.22 400.3-5.62 400.3-8.01 401.43-9.79 402.57-11.57 404.42-12.74L404.42-12.74Q408.08-15.01 413.63-15.11L413.63-15.11 413.63-15.38Q413.63-21.31 411.8-22.34L411.8-22.34Q411.14-22.71 410.1-22.71 409.06-22.71 408.04-22.02 407.01-21.34 406.18-20.26L406.18-20.26Q404.52-18.09 403.81-15.14L403.81-15.14Q401.64-16.43 401.64-20.09L401.64-20.09Q401.64-21.58 402.03-23.44L402.03-23.44Q402.96-23.44 403.79-23.71L403.79-23.71 405.67-24.29Q408.43-25.15 411.06-25.15 413.7-25.15 415.27-24.37 416.85-23.58 417.73-22.05L417.73-22.05Q419.22-19.43 419.22-13.04ZM405.57-5.13Q405.57-3.61 406.27-2.78 406.96-1.95 408.01-1.95 409.06-1.95 410.04-2.5 411.01-3.05 411.8-4L411.8-4Q413.63-6.18 413.63-9.11L413.63-9.11 413.63-12.72Q410.21-12.4 407.99-10.45L407.99-10.45Q405.57-8.35 405.57-5.13L405.57-5.13ZM432.67-17.58L432.64-11.18Q432.64-3.27 433.6 0L433.6 0 426.39 0Q427.08-2.37 427.25-5.59L427.25-5.59Q427.61-13.38 427.61-17.68 427.61-21.97 427.59-23.45 427.56-24.93 427.54-26.42L427.54-26.42Q427.39-31.71 427.04-33.09 426.69-34.47 426.38-35.1 426.08-35.72 425.68-36.23L425.68-36.23 424.88-37.35 433.79-37.35Q433.11-34.89 433-32.63 432.89-30.37 432.83-28.64 432.77-26.9 432.72-25.02L432.72-25.02Q432.67-21.9 432.67-17.58L432.67-17.58Z" opacity="1" transform="matrix(1,0,0,1,0,0)" fill="#ff0000" class="wordmark-text-0" data-fill-palette-color="primary" id="text-0"></path></svg></g></svg></g><g transform="matrix(1,0,0,1,163.310208,56.74500045385573)"><svg viewBox="0 0 232.209792 17.193588102904563" height="17.193588102904563" width="232.209792"><g transform="matrix(1,0,0,1,0,0)"><svg width="232.209792" viewBox="-0.1 -38.11 529.49 39.21" height="17.193588102904563" data-palette-color="#ca3433"><path d="M27.66-2.29L23.9-11.84 11.01-11.84 7.45-2.29 11.55-1 11.55 0-0.1 0-0.1-1 4.15-2.76 16.89-36.01 19.14-36.01 32.2-2.76 36.21-1 36.21 0 23.71 0 23.71-1 27.66-2.29ZM17.46-28.54L17.26-28.54 12.01-14.45 22.9-14.45 17.46-28.54ZM54.2-23.1L46.46-21.61 46.46-2.76 52.71-1 52.71 0 37.45 0 37.45-1 41.94-2.76 41.94-21.51 37.2-22.85 37.2-23.85 41.94-24.85 41.94-27.34Q41.94-29.96 42.87-32.06 43.8-34.16 45.35-35.45 46.9-36.74 48.84-37.43 50.78-38.11 52.9-38.11L52.9-38.11Q53.66-38.11 54.93-37.92 56.2-37.72 56.86-37.45L56.86-37.45 56.86-30 55.86-30 52.39-35.84Q50.27-35.84 48.91-34.77 47.56-33.69 47.01-31.97 46.46-30.25 46.46-27.86L46.46-27.86 46.46-24.85 53.34-24.85 54.2-24.56 54.2-23.1ZM73.85-23.1L66.11-21.61 66.11-2.76 72.36-1 72.36 0 57.1 0 57.1-1 61.59-2.76 61.59-21.51 56.86-22.85 56.86-23.85 61.59-24.85 61.59-27.34Q61.59-29.96 62.52-32.06 63.45-34.16 65-35.45 66.55-36.74 68.49-37.43 70.43-38.11 72.55-38.11L72.55-38.11Q73.31-38.11 74.58-37.92 75.85-37.72 76.51-37.45L76.51-37.45 76.51-30 75.51-30 72.04-35.84Q69.92-35.84 68.56-34.77 67.21-33.69 66.66-31.97 66.11-30.25 66.11-27.86L66.11-27.86 66.11-24.85 72.99-24.85 73.85-24.56 73.85-23.1ZM88.96-25.61L88.96-25.61Q91.74-25.61 93.96-24.66 96.18-23.71 97.72-21.98 99.26-20.26 100.08-17.85 100.9-15.43 100.9-12.5L100.9-12.5Q100.9-9.59 100.09-7.18 99.28-4.76 97.75-3.03 96.21-1.29 93.99-0.34 91.76 0.61 88.96 0.61L88.96 0.61Q86.13 0.61 83.9-0.34 81.68-1.29 80.14-3.03 78.61-4.76 77.8-7.17 76.99-9.57 76.99-12.5L76.99-12.5Q76.99-15.43 77.81-17.85 78.63-20.26 80.17-21.98 81.71-23.71 83.93-24.66 86.15-25.61 88.96-25.61ZM83.64-20.43L83.64-20.43Q81.76-17.38 81.76-12.5L81.76-12.5Q81.76-10.08 82.23-8.07 82.71-6.05 83.62-4.6 84.54-3.15 85.88-2.34 87.22-1.54 88.96-1.54L88.96-1.54Q90.69-1.54 92.06-2.34 93.43-3.15 94.37-4.6 95.31-6.05 95.81-8.07 96.31-10.08 96.31-12.5L96.31-12.5Q96.31-14.89 95.81-16.91 95.31-18.92 94.37-20.37 93.43-21.83 92.06-22.64 90.69-23.46 88.96-23.46L88.96-23.46Q85.49-23.46 83.64-20.43ZM113.88-2.76L119.64-1 119.64 0 104.9 0 104.9-1 109.39-2.76 109.39-21.09 104.9-22.85 104.9-23.85 113.39-25.61 113.88-25.1 113.88-22.09Q117.59-25.61 123.65-25.61L123.65-25.61 123.65-20.19 122.65-19.85 119.08-21.8Q117.98-21.8 116.57-21.33 115.15-20.85 113.88-19.95L113.88-19.95 113.88-2.76ZM148.43-3.39L152.92-2.15 152.92-1.25 144.42 0.61 143.93 0.1 143.93-2.25Q141 0.61 137.02 0.61L137.02 0.61Q135 0.61 133.12-0.31 131.24-1.22 129.8-2.87 128.36-4.52 127.49-7.02 126.62-9.52 126.62-12.5L126.62-12.5Q126.62-15.41 127.61-17.87 128.6-20.34 130.29-22.01 131.97-23.68 134.26-24.62 136.56-25.56 139.12-25.56L139.12-25.56Q141.44-25.56 143.93-24.76L143.93-24.76 143.93-33.59 139.42-35.35 139.42-36.35 147.94-38.11 148.43-37.6 148.43-3.39ZM143.93-4.91L143.93-4.91 143.93-21.85Q141.66-23.1 139.64-23.1L139.64-23.1Q136.19-23.1 133.96-20.06 131.73-17.02 131.73-12.5L131.73-12.5Q131.73-7.76 133.57-4.88 135.41-2 138.73-2L138.73-2Q141.78-2 143.93-4.91ZM175.67-3.39L180.19-2.15 180.19-1.25 174.89 0.39Q173.32 0.73 172.25 0.04 171.18-0.66 171.18-2.34L171.18-2.34Q168 0.61 163.73 0.61L163.73 0.61Q160.19 0.61 158.43-1.22 156.67-3.05 156.67-5.81L156.67-5.81Q156.67-7.89 157.6-9.48 158.53-11.08 159.97-12.04 161.41-12.99 163.41-13.62 165.41-14.26 167.27-14.5 169.13-14.75 171.18-14.79L171.18-14.79 171.18-17.14Q171.18-20.56 170.1-21.9 169.03-23.24 166.54-23.24L166.54-23.24Q164.66-23.24 162.12-22.66L162.12-22.66 159.53-16.99 158.33-16.99 158.33-23.95Q160.53-24.73 162.97-25.17 165.41-25.61 167.27-25.61L167.27-25.61Q171.3-25.61 173.48-23.99 175.67-22.36 175.67-18.65L175.67-18.65 175.67-3.39ZM165.78-2.25L165.78-2.25Q167.17-2.25 168.64-2.92 170.1-3.59 171.18-4.76L171.18-4.76 171.18-12.79Q166.29-12.57 163.73-10.8 161.17-9.03 161.17-6.3L161.17-6.3Q161.17-4.2 162.51-3.22 163.85-2.25 165.78-2.25ZM188.56-0.85L187.17 1.1 185.68 1.1 185.68-33.59 181.16-35.35 181.16-36.35 189.66-38.11 190.17-37.6 190.17-23.39Q192.71-25.61 196.81-25.61L196.81-25.61Q198.84-25.61 200.75-24.69 202.67-23.78 204.16-22.13 205.65-20.48 206.55-17.97 207.45-15.45 207.45-12.5L207.45-12.5Q207.45-9.38 206.42-6.84 205.38-4.3 203.62-2.7 201.86-1.1 199.63-0.24 197.39 0.61 194.9 0.61L194.9 0.61Q191.71 0.61 188.56-0.85L188.56-0.85ZM195.03-23.1L195.03-23.1Q192.15-23.1 190.17-20.8L190.17-20.8 190.17-4.2Q191.39-2.81 192.6-2.36 193.81-1.9 195.17-1.9L195.17-1.9Q197.44-1.9 199.12-3.44 200.79-4.98 201.58-7.34 202.38-9.69 202.38-12.5L202.38-12.5Q202.38-17.16 200.36-20.13 198.35-23.1 195.03-23.1ZM220.22-2.76L224.71-1 224.71 0 211.21 0 211.21-1 215.73-2.76 215.73-33.59 211.21-35.35 211.21-36.35 219.73-38.11 220.22-37.6 220.22-2.76ZM250.51-13.06L249.81-12.35 234.01-12.35Q234.04-9.62 234.79-7.59 235.55-5.57 236.84-4.42 238.14-3.27 239.69-2.73 241.24-2.2 243.07-2.2L243.07-2.2Q245.61-2.2 248.51-3.91L248.51-3.91 249.27-2.44Q247.22-0.63 245.17-0.01 243.12 0.61 240.5 0.61L240.5 0.61Q238.23 0.61 236.13-0.35 234.04-1.32 232.45-3.02 230.86-4.71 229.91-7.18 228.96-9.64 228.96-12.5L228.96-12.5Q228.96-15.21 229.65-17.44 230.35-19.68 231.5-21.17 232.64-22.66 234.17-23.68 235.7-24.71 237.29-25.16 238.89-25.61 240.55-25.61L240.55-25.61Q242.63-25.61 244.4-24.84 246.17-24.07 247.55-22.57 248.93-21.07 249.72-18.63 250.51-16.19 250.51-13.06L250.51-13.06ZM240.65-23.24L240.65-23.24Q237.84-23.24 236.17-21.02 234.5-18.8 234.11-14.94L234.11-14.94 245.75-14.94Q245.75-18.85 244.44-21.04 243.12-23.24 240.65-23.24ZM295.46-1L299.7-2.76 299.7-16.99 281.52-16.99 281.52-2.76 286.01-1 286.01 0 272.51 0 272.51-1 276.75-2.76 276.75-33.25 272.26-35.01 272.26-36.01 285.76-36.01 285.76-35.01 281.52-33.25 281.52-19.6 299.7-19.6 299.7-33.25 295.21-35.01 295.21-36.01 308.2-36.01 308.2-35.11 304.46-33.25 304.46-2.76 308.96-1 308.96 0 295.46 0 295.46-1ZM335.52-13.06L334.81-12.35 319.01-12.35Q319.04-9.62 319.79-7.59 320.55-5.57 321.85-4.42 323.14-3.27 324.69-2.73 326.24-2.2 328.07-2.2L328.07-2.2Q330.61-2.2 333.51-3.91L333.51-3.91 334.27-2.44Q332.22-0.63 330.17-0.01 328.12 0.61 325.51 0.61L325.51 0.61Q323.24 0.61 321.14-0.35 319.04-1.32 317.45-3.02 315.86-4.71 314.91-7.18 313.96-9.64 313.96-12.5L313.96-12.5Q313.96-15.21 314.66-17.44 315.35-19.68 316.5-21.17 317.65-22.66 319.17-23.68 320.7-24.71 322.3-25.16 323.9-25.61 325.56-25.61L325.56-25.61Q327.63-25.61 329.4-24.84 331.17-24.07 332.55-22.57 333.93-21.07 334.72-18.63 335.52-16.19 335.52-13.06L335.52-13.06ZM325.65-23.24L325.65-23.24Q322.85-23.24 321.17-21.02 319.5-18.8 319.11-14.94L319.11-14.94 330.76-14.94Q330.76-18.85 329.44-21.04 328.12-23.24 325.65-23.24ZM358.76-3.39L363.27-2.15 363.27-1.25 357.98 0.39Q356.41 0.73 355.34 0.04 354.26-0.66 354.26-2.34L354.26-2.34Q351.09 0.61 346.82 0.61L346.82 0.61Q343.28 0.61 341.52-1.22 339.76-3.05 339.76-5.81L339.76-5.81Q339.76-7.89 340.69-9.48 341.62-11.08 343.06-12.04 344.5-12.99 346.5-13.62 348.5-14.26 350.36-14.5 352.21-14.75 354.26-14.79L354.26-14.79 354.26-17.14Q354.26-20.56 353.19-21.9 352.12-23.24 349.63-23.24L349.63-23.24Q347.75-23.24 345.21-22.66L345.21-22.66 342.62-16.99 341.42-16.99 341.42-23.95Q343.62-24.73 346.06-25.17 348.5-25.61 350.36-25.61L350.36-25.61Q354.39-25.61 356.57-23.99 358.76-22.36 358.76-18.65L358.76-18.65 358.76-3.39ZM348.87-2.25L348.87-2.25Q350.26-2.25 351.73-2.92 353.19-3.59 354.26-4.76L354.26-4.76 354.26-12.79Q349.38-12.57 346.82-10.8 344.25-9.03 344.25-6.3L344.25-6.3Q344.25-4.2 345.6-3.22 346.94-2.25 348.87-2.25ZM374.5-2.76L378.99-1 378.99 0 365.49 0 365.49-1 370.01-2.76 370.01-33.59 365.49-35.35 365.49-36.35 374.01-38.11 374.5-37.6 374.5-2.76ZM398.74-23.1L390.73-21.61 390.73-8.01Q390.73-6.35 390.99-5.22 391.25-4.1 391.75-3.55 392.25-3 392.81-2.8 393.37-2.59 394.15-2.59L394.15-2.59Q395.62-2.59 396.61-2.84 397.59-3.1 398.74-3.81L398.74-3.81 399.5-2.25Q396.06 0.61 391.95 0.61L391.95 0.61Q389.56 0.61 387.9-1.28 386.24-3.17 386.24-6.59L386.24-6.59 386.24-21.61 381.7-22.85 381.7-23.85 386.44-24.85 388.24-31.59 390.73-31.59 390.73-24.85 397.89-24.85 398.74-24.56 398.74-23.1ZM411.85-2.76L416.1-1 416.1 0 402.84 0 402.84-1 407.36-2.76 407.36-33.59 402.84-35.35 402.84-36.35 411.36-38.11 411.85-37.6 411.85-22.14Q413.56-23.75 415.88-24.68 418.2-25.61 420.44-25.61L420.44-25.61Q423.74-25.61 425.9-23.61 428.06-21.61 428.06-17.65L428.06-17.65 428.06-2.76 432.55-1 432.55 0 419.3 0 419.3-1 423.54-2.76 423.54-16.16Q423.54-19.68 422.3-21.04 421.05-22.41 418-22.41L418-22.41Q414.36-22.41 411.85-20.24L411.85-20.24 411.85-2.76ZM447.1 0.61L447.1 0.61Q444.81 0.61 442.72-0.33 440.63-1.27 439.04-2.94 437.46-4.61 436.51-7.1 435.55-9.59 435.55-12.5L435.55-12.5Q435.55-15.65 436.51-18.19 437.46-20.73 439.13-22.34 440.8-23.95 442.98-24.8 445.15-25.66 447.66-25.66L447.66-25.66Q451.25-25.66 454.72-24.05L454.72-24.05 454.72-16.5 453.72-16.5 451.01-23.05Q449.54-23.39 448.1-23.39L448.1-23.39Q444.27-23.39 442.44-20.56 440.61-17.72 440.61-12.5L440.61-12.5Q440.61-7.52 443.02-4.86 445.44-2.2 449.66-2.2L449.66-2.2Q451.1-2.2 452.26-2.58 453.42-2.95 455.11-3.91L455.11-3.91 455.87-2.34Q453.69-0.63 451.67-0.01 449.64 0.61 447.1 0.61ZM479.11-3.39L483.62-2.15 483.62-1.25 478.32 0.39Q476.76 0.73 475.69 0.04 474.61-0.66 474.61-2.34L474.61-2.34Q471.44 0.61 467.17 0.61L467.17 0.61Q463.63 0.61 461.87-1.22 460.11-3.05 460.11-5.81L460.11-5.81Q460.11-7.89 461.04-9.48 461.97-11.08 463.41-12.04 464.85-12.99 466.85-13.62 468.85-14.26 470.71-14.5 472.56-14.75 474.61-14.79L474.61-14.79 474.61-17.14Q474.61-20.56 473.54-21.9 472.46-23.24 469.97-23.24L469.97-23.24Q468.09-23.24 465.56-22.66L465.56-22.66 462.97-16.99 461.77-16.99 461.77-23.95Q463.97-24.73 466.41-25.17 468.85-25.61 470.71-25.61L470.71-25.61Q474.74-25.61 476.92-23.99 479.11-22.36 479.11-18.65L479.11-18.65 479.11-3.39ZM469.22-2.25L469.22-2.25Q470.61-2.25 472.07-2.92 473.54-3.59 474.61-4.76L474.61-4.76 474.61-12.79Q469.73-12.57 467.17-10.8 464.6-9.03 464.6-6.3L464.6-6.3Q464.6-4.2 465.95-3.22 467.29-2.25 469.22-2.25ZM495.09-2.76L500.86-1 500.86 0 486.11 0 486.11-1 490.6-2.76 490.6-21.09 486.11-22.85 486.11-23.85 494.61-25.61 495.09-25.1 495.09-22.09Q498.81-25.61 504.86-25.61L504.86-25.61 504.86-20.19 503.86-19.85 500.29-21.8Q499.2-21.8 497.78-21.33 496.36-20.85 495.09-19.95L495.09-19.95 495.09-2.76ZM529.39-13.06L528.69-12.35 512.89-12.35Q512.91-9.62 513.67-7.59 514.43-5.57 515.72-4.42 517.02-3.27 518.57-2.73 520.12-2.2 521.95-2.2L521.95-2.2Q524.49-2.2 527.39-3.91L527.39-3.91 528.15-2.44Q526.1-0.63 524.05-0.01 522 0.61 519.38 0.61L519.38 0.61Q517.11 0.61 515.01-0.35 512.91-1.32 511.33-3.02 509.74-4.71 508.79-7.18 507.84-9.64 507.84-12.5L507.84-12.5Q507.84-15.21 508.53-17.44 509.23-19.68 510.37-21.17 511.52-22.66 513.05-23.68 514.57-24.71 516.17-25.16 517.77-25.61 519.43-25.61L519.43-25.61Q521.51-25.61 523.28-24.84 525.05-24.07 526.43-22.57 527.81-21.07 528.6-18.63 529.39-16.19 529.39-13.06L529.39-13.06ZM519.53-23.24L519.53-23.24Q516.72-23.24 515.05-21.02 513.38-18.8 512.99-14.94L512.99-14.94 524.63-14.94Q524.63-18.85 523.31-21.04 522-23.24 519.53-23.24Z" opacity="1" transform="matrix(1,0,0,1,0,0)" fill="#ca3433" class="slogan-text-1" data-fill-palette-color="secondary" id="text-1"></path></svg></g></svg></g></svg></g></svg></g><g transform="matrix(1,0,0,1,406.357628695278,0)"><svg viewBox="0 0 93.72269274111117 102.18312938544274" height="102.18312938544274" width="93.72269274111117"><g><svg xmlns="http://www.w3.org/2000/svg" xmlns:xlink="http://www.w3.org/1999/xlink" version="1.1" x="0" y="0" viewBox="3.757 0.09196422643405809 91.40299999999999 99.65403577356594" enable-background="new 0 0 100 100" xml:space="preserve" height="102.18312938544274" width="93.72269274111117" class="icon-icon-0" data-fill-palette-color="accent" id="icon-0"><g fill="#ed2647" data-fill-palette-color="accent"><path d="M39.319 30.636C36.434 30.428 34.278 30.615 33.717 33.408 34.031 33.644 34.47 33.708 34.908 33.418A10.7 10.7 0 0 1 38.928 31.835C41.182 31.438 43.297 31.776 45.104 32.633 45.331 32.741 45.548 32.769 45.741 32.738A1.34 1.34 0 0 0 45.44 32.125C44.883 31.496 43.383 30.93 39.319 30.636" fill="#ed2647" data-fill-palette-color="accent"></path><path d="M40.354 33.147C38.202 33.147 36.313 34.158 35.604 35.73 35.271 36.464 36.374 36.962 36.703 36.228 37.096 35.363 38.142 34.611 39.578 34.408A1.7 1.7 0 0 0 40.451 37.564 1.698 1.698 0 0 0 41.388 34.451C42.716 34.702 43.705 35.419 44.07 36.228 44.402 36.961 45.504 36.464 45.172 35.73 44.459 34.151 42.499 33.147 40.354 33.147" fill="#ed2647" data-fill-palette-color="accent"></path><circle cx="28.041" cy="94.966" r="2.8" fill="#ed2647" data-fill-palette-color="accent"></circle><path d="M23.046 96.787A5.314 5.314 0 0 1 26.003 90.058C25.979 89.849 25.96 89.638 25.942 89.426 25.89 88.76 26.145 88.271 26.54 87.963 26.421 82.48 28.227 76.735 31.536 71.663 28.124 72.797 24.106 74.12 24.106 74.12 13.028 77.902 6.038 80.266 4.493 89.005 4.476 89.1 3.862 94.897 3.757 99.745V99.746H25.708A5.3 5.3 0 0 1 23.046 96.787" fill="#ed2647" data-fill-palette-color="accent"></path><path d="M66.695 89.592A25 25 0 0 1 66.314 88.612C66.086 87.997 66.195 87.457 66.484 87.061 65.154 82.88 64.939 78.795 64.509 74.289 64.378 72.944 64.212 71.678 63.907 70.504 63.546 70.38 63.249 70.278 63.038 70.204A0.5 0.5 0 0 0 62.962 69.934L60.448 62.993A0.54 0.54 0 0 0 60.356 62.772 0.55 0.55 0 0 0 60.192 62.595L59.817 62.235C59.469 62.211 59.088 62.038 58.721 61.675L58.651 61.979C57.467 65.768 53.133 67.526 49.456 67.526 45.792 67.526 42.265 66.172 40.599 62.805 40.353 62.309 40.263 61.979 40.263 61.979L40.193 61.682C39.836 62.034 39.467 62.203 39.129 62.233L38.752 62.595A0.5 0.5 0 0 0 38.587 62.77 0.54 0.54 0 0 0 38.495 62.992L35.981 69.932A0.53 0.53 0 0 0 35.905 70.192C35.657 70.28 35.282 70.409 34.813 70.567 30.682 75.864 28.462 82.069 28.571 87.854 28.969 88.102 29.266 88.533 29.315 89.156 29.334 89.381 29.356 89.602 29.383 89.825A5.3 5.3 0 0 1 33.033 93.149 5.315 5.315 0 0 1 30.373 99.746H61.642C60.868 95.376 62.609 91.857 66.695 89.592M37.21 89.986L34.69 90.478 34.079 87.327 30.929 87.939 30.439 85.418 33.589 84.806 32.978 81.657 35.498 81.168 36.109 84.316 39.259 83.704 39.749 86.225 36.599 86.837zM44.441 97.626L38.845 79.059C38.911 79.098 38.983 79.119 39.059 79.126A1 1 0 0 0 39.205 79.139C41.619 79.085 42.727 76.727 43.76 74.927 44.205 74.158 44.689 73.345 45.281 72.537L47.617 76.261zM42.759 74.357C42.042 75.603 41.128 77.628 39.556 77.945L37.093 70.24 39.599 63.376C41.2 66.553 44.269 68.167 47.679 68.572 45.155 70.337 43.81 72.537 42.759 74.357M59.314 63.348L59.375 63.406 61.852 70.242 59.389 77.948C57.817 77.63 56.903 75.604 56.186 74.36 55.137 72.537 53.786 70.334 51.258 68.567 54.663 68.148 57.691 66.502 59.314 63.348M54.477 97.626L51.301 76.261 53.649 72.518C54.25 73.33 54.739 74.153 55.186 74.927 56.221 76.727 57.328 79.085 59.742 79.139A1 1 0 0 0 59.888 79.126 0.5 0.5 0 0 0 60.066 79.076z" fill="#ed2647" data-fill-palette-color="accent"></path><path d="M65.262 33.359C64.688 30.613 62.539 30.428 59.672 30.636 55.608 30.93 54.108 31.496 53.551 32.125 53.405 32.29 53.313 32.505 53.26 32.747 53.432 32.76 53.62 32.726 53.817 32.633 55.625 31.776 57.739 31.438 59.991 31.835 61.497 32.1 62.856 32.656 64.011 33.418 64.479 33.726 64.945 33.632 65.262 33.359" fill="#ed2647" data-fill-palette-color="accent"></path><path d="M94.426 89.006C92.879 80.268 85.889 77.902 74.811 74.122 74.811 74.122 69.746 72.454 66.162 71.259 66.64 73.757 66.69 76.36 66.936 78.876 67.168 81.253 67.54 83.759 68.385 86.38 68.852 86.504 69.27 86.839 69.492 87.443 69.591 87.718 69.701 87.996 69.814 88.269 75.363 86.572 79.702 88.882 82.215 94.8 82.957 96.551 83.379 98.205 83.53 99.744H95.16C95.057 94.896 94.441 89.102 94.426 89.006" fill="#ed2647" data-fill-palette-color="accent"></path><path d="M70.282 89.33C71.093 91.316 68.116 92.673 67.165 90.648 63.529 92.698 62.034 95.791 62.812 99.745H82.386C82.218 98.29 81.802 96.773 81.154 95.25 78.884 89.895 75.173 87.887 70.282 89.33" fill="#ed2647" data-fill-palette-color="accent"></path><path d="M58.566 33.147C56.421 33.147 54.461 34.15 53.748 35.73 53.414 36.464 54.516 36.961 54.848 36.228 55.216 35.419 56.204 34.701 57.533 34.451A1.69 1.69 0 0 0 56.772 35.865 1.698 1.698 0 1 0 59.342 34.408C60.778 34.611 61.824 35.363 62.217 36.228 62.548 36.961 63.649 36.464 63.319 35.73 62.605 34.159 60.721 33.147 58.566 33.147" fill="#ed2647" data-fill-palette-color="accent"></path><path d="M40.054 60.792C42.231 57.573 42.771 55.311 42.417 51.441 42.368 50.437 43.263 50.422 44.945 50.422 45.72 50.422 46.47 50.44 46.47 50.44 49.308 50.44 49.327 47.97 47.134 47.97 47.134 47.97 46.605 47.925 44.898 47.951 42.736 47.985 39.598 48.457 39.664 51.426 39.729 54.357 40.145 55.753 39.125 58.572 38.605 60.008 38.658 59.94 38.658 59.94 37.878 61.432 39.107 62.189 40.054 60.792" fill="#ed2647" data-fill-palette-color="accent"></path><path d="M31.578 45.429C32.322 50.855 34.222 54.566 36.769 57.021 37.154 57.396 37.654 57.842 38.218 58.263L38.271 58.48 38.324 58.709C38.506 58.123 38.647 57.642 38.754 57.228 35.709 54.921 33.397 51.027 32.641 44.682 32.677 44.263 32.356 43.847 31.573 44.24 30.032 44.719 28.774 43.858 26.594 39.706 24.949 36.57 25.303 33.679 26.676 33.17L26.723 33.155C27.667 32.848 28.876 33.299 29.989 34.529A15.6 15.6 0 0 0 31.044 37.224C31.298 37.724 31.529 38.107 31.689 38.357 31.371 37.515 31.164 36.544 31.029 35.441 30.953 34.82 30.963 33.872 30.412 33.464 29.965 33.07 29.621 32.636 29.621 32.039V29.837C29.621 29.533 29.736 29.251 29.918 29.031A65 65 0 0 1 29.023 24.194C30.076 24.235 31.517 24.098 32.537 23.975A13 13 0 0 1 31.961 27.324C31.87 27.628 31.776 27.915 31.684 28.189 32.086 28.081 32.52 27.993 32.981 27.924L33.065 27.65C33.56 26.033 33.895 24.066 33.583 21.227 33.257 18.253 34.499 18.066 37.796 19.057 38.682 19.322 39.561 19.622 40.444 19.926 46.224 22.054 49.739 25.574 56.464 26.171 57.229 26.239 57.33 25.093 56.565 25.025 53.028 24.711 50.813 23.775 48.598 22.603 53.66 23.851 59.047 24.31 63.715 23.632 64.476 23.521 64.31 22.382 63.549 22.492 59.823 23.034 55.592 22.822 51.445 22.043 56.344 22.067 61.792 21.282 65.394 20.383 65.398 20.648 65.385 20.943 65.351 21.273 65.101 23.54 65.265 25.256 65.595 26.685 65.697 27.127 65.806 27.533 65.918 27.912 67.062 28.077 68.06 28.355 68.783 28.774 69.125 28.998 69.369 29.396 69.369 29.839V32.041C69.369 32.638 69.026 33.072 68.582 33.466 67.905 33.965 67.862 36.459 67.698 37.205A8 8 0 0 1 67.467 38.038 15 15 0 0 0 68.931 34.609C70.06 33.322 71.297 32.843 72.26 33.152 73.664 33.609 74.068 36.517 72.375 39.745 70.198 43.886 68.94 44.727 67.396 44.233L67.324 44.205A1 1 0 0 0 67.236 44.177C66.851 43.961 66.359 43.972 66.29 44.575 65.557 50.955 63.225 54.877 60.163 57.206 60.273 57.621 60.413 58.103 60.595 58.695L60.647 58.48 60.661 58.402 60.694 58.256A15.4 15.4 0 0 0 62.516 56.649C64.878 54.182 66.641 50.571 67.344 45.414 69.735 45.983 71.395 44.088 73.399 40.276 74.991 37.242 75.35 32.955 72.608 32.057 71.511 31.708 70.38 32.003 69.371 32.688 69.418 32.522 69.471 32.359 69.508 32.214 70.144 29.824 70.736 27.206 71.101 24.527A0.64 0.64 0 0 0 71.144 24.201C72.038 17.285 71.381 10 66.041 5.158 64.737 3.99 63.14 3.011 61.211 2.226 58.137 0.976 54.254 0.248 49.494 0.099 46.19 0.03 36.718 0.402 35.429 4.241A6 6 0 0 0 35.191 5.164C33.137 5.415 31.32 6.349 30.246 8.251 26.291 14.587 27.296 23.125 28.941 30.028 29.135 30.845 29.473 31.802 29.623 32.688 28.602 32 27.455 31.705 26.332 32.071L26.283 32.088C23.644 33.043 24.01 37.253 25.58 40.248 27.574 44.048 29.211 45.959 31.578 45.429M45.079 20.111C48.586 18.486 52.553 17.835 56.437 17.576 52.706 19.01 48.448 19.941 45.079 20.111M69.352 27.989C68.701 27.913 67.712 27.787 67.112 27.709 66.764 26.623 66.524 25.657 66.424 24.568 67.584 24.704 68.748 24.796 69.916 24.839A55 55 0 0 1 69.352 27.989M70.064 23.693A43 43 0 0 1 66.372 23.402C66.372 23.275 66.376 23.144 66.378 23.011 66.706 23.01 66.964 22.994 67.411 22.994 68.344 22.994 69.262 22.965 70.148 22.909 70.124 23.171 70.096 23.433 70.064 23.693M70.246 21.75A42 42 0 0 1 67.412 21.844C66.996 21.844 66.75 21.86 66.447 21.861 66.461 21.71 66.476 21.556 66.494 21.398 66.547 20.902 66.555 20.463 66.529 20.076 67.394 19.824 68.097 19.571 68.592 19.329 69.283 18.994 68.779 17.958 68.09 18.294 66.574 19.031 62.756 19.935 58.418 20.458 62.382 19.083 67.08 16.85 69.901 14.751 70.335 17.016 70.402 19.398 70.246 21.75M66.609 7.416C66.588 7.43 66.566 7.444 66.546 7.462 64.667 8.959 61.887 10.479 58.579 11.718 61.598 10.156 64.148 8.383 65.943 6.671 66.176 6.913 66.398 7.161 66.609 7.416M61.218 3.476C62.753 4.145 64.044 4.95 65.114 5.874 61.208 9.588 54.553 12.774 49.329 14.01 48.555 14.193 48.735 15.23 49.526 15.142 55.224 14.511 62.828 11.898 67.265 8.362L67.308 8.325C68.406 9.897 69.154 11.654 69.629 13.512 67.398 15.294 63.349 17.461 59.377 18.828 55.842 20.046 53.959 20.674 51.043 20.888A38 38 0 0 1 49.561 20.839H49.489L49.415 20.834A13 13 0 0 1 48.94 20.824C53.833 19.984 59.338 18.07 62.776 15.578 63.397 15.128 62.721 14.196 62.1 14.647A20.6 20.6 0 0 1 59.35 16.296H59.307C53.921 16.436 48.146 17.075 43.346 19.697A45 45 0 0 1 42.727 19.496C44.278 18.453 46.305 17.572 48.813 16.618 49.53 16.345 49.122 15.269 48.405 15.542 47.847 15.754 47.31 15.964 46.79 16.175 50.176 12.139 55.942 8.269 60.522 6.389 61.229 6.098 60.793 5.033 60.084 5.325 59.808 5.438 59.526 5.558 59.246 5.684A22 22 0 0 0 61.218 3.476M50.596 1.295C54.408 1.497 57.555 2.096 60.106 3.03 58.756 4.719 56.756 6.6 54.286 8.372 50.482 10.783 46.792 13.926 44.677 17.057L44.644 17.113A21 21 0 0 0 43.935 17.463C45.929 12.463 50.667 6.758 54.751 3.531 55.353 3.055 54.64 2.152 54.038 2.628 49.483 6.226 44.251 12.708 42.46 18.153A1.4 1.4 0 0 0 42.409 18.33C42.047 18.558 41.709 18.794 41.389 19.04L41.063 18.928C40.918 18.873 40.773 18.819 40.627 18.767A0.7 0.7 0 0 0 40.719 18.542C40.967 17.38 41.514 15.862 42.219 14.271L42.178 14.593C42.085 15.355 43.225 15.495 43.321 14.734 44.033 8.963 46.097 5.321 50.596 1.295M48.952 1.244C46.129 3.933 44.317 6.557 43.233 9.771A2.4 2.4 0 0 0 42.965 10.204C41.537 12.763 40.219 15.749 39.682 17.91A22 22 0 0 1 38.19 15.318L38.333 14.484C39.016 10.197 41.645 5.143 44.194 1.509A47 47 0 0 1 48.952 1.244M42.661 1.715C40.389 5.133 38.196 9.481 37.366 13.395A25 25 0 0 1 37.083 12.577L37.378 10.903C37.771 8.435 38.806 5.463 40.64 2.123 41.276 1.963 41.956 1.827 42.661 1.715M36.519 4.628C36.798 3.778 37.749 3.112 39.081 2.606 37.727 5.243 36.858 7.667 36.409 9.814 36.011 7.409 36.194 5.518 36.519 4.628M35.054 6.346C34.907 8.655 35.349 12.083 37.115 15.739 36.677 15.265 36.226 14.799 35.765 14.341A0.54 0.54 0 0 0 35.808 13.69C34.765 11.904 33.384 9.986 31.749 8.096 32.591 7.088 33.757 6.553 35.054 6.346M31.085 9.09A40 40 0 0 1 33.542 12.278 38 38 0 0 0 30.601 9.965C30.751 9.67 30.913 9.379 31.085 9.09M30.103 11.024C32.647 12.849 35.019 15.075 37.098 17.436 34.627 15.92 31.943 14.72 29.203 13.781 29.427 12.84 29.724 11.919 30.103 11.024M28.968 14.917C31.005 15.619 32.88 16.408 34.722 17.412 33.453 17.521 32.537 18.199 32.402 19.951A35 35 0 0 0 28.632 19.506C28.611 17.955 28.706 16.416 28.968 14.917M28.874 23.036A37 37 0 0 1 28.671 20.663C29.884 20.741 31.071 20.887 32.416 21.123L32.439 21.353C32.495 21.872 32.53 22.357 32.546 22.815 31.524 22.941 29.872 23.108 28.874 23.036" fill="#ed2647" data-fill-palette-color="accent"></path><path d="M60.844 41.804C66.887 41.213 67.065 37.194 67.291 35.358 67.434 34.191 67.443 33.465 68.156 32.939 68.548 32.591 68.691 32.345 68.691 32.039V29.837A0.58 0.58 0 0 0 68.429 29.349C67.666 28.906 65.037 28.27 61.043 28.418 56.386 28.591 53.369 29.947 52.302 30.322 51.275 30.682 49.623 30.677 49.494 30.676 49.367 30.677 47.712 30.681 46.687 30.322 45.621 29.947 42.605 28.591 37.951 28.418 33.955 28.27 31.33 28.906 30.568 29.349A0.58 0.58 0 0 0 30.302 29.837V32.039C30.302 32.345 30.444 32.591 30.839 32.939 31.552 33.465 31.561 34.191 31.704 35.358 31.93 37.194 32.106 41.213 38.151 41.804 43.84 42.36 46.258 39.279 47.137 36.985 48.004 34.725 47.984 33.613 49.496 33.61 51.007 33.613 50.99 34.725 51.856 36.985 52.736 39.279 55.154 42.36 60.844 41.804M46.315 35.285C46.047 38.316 43.498 41.098 39.186 41.098 35.723 41.098 32.926 39.136 32.899 35.14 32.862 30.033 35.915 29.711 39.368 29.962 47.381 30.541 46.585 32.186 46.315 35.285M52.68 35.285C52.408 32.186 51.61 30.541 59.624 29.962 63.075 29.712 66.13 30.034 66.093 35.14 66.065 39.136 63.268 41.098 59.807 41.098 55.493 41.098 52.945 38.316 52.68 35.285" fill="#ed2647" data-fill-palette-color="accent"></path><path d="M48.841 58.52C48.075 58.52 48.075 59.67 48.841 59.67H50.087C50.856 59.67 50.856 58.52 50.087 58.52z" fill="#ed2647" data-fill-palette-color="accent"></path><path d="M29.335 39.254C29.534 39.943 30.095 40.513 30.587 40.475 31.669 40.391 30.979 38.784 30.915 38.63 30.114 36.605 28.558 34.835 26.962 35.229 26.216 35.412 26.493 36.53 27.237 36.346 27.753 36.218 28.708 36.821 29.448 38.186 29.261 38.415 29.208 38.81 29.335 39.254" fill="#ed2647" data-fill-palette-color="accent"></path><path d="M55.335 52.591C55.613 52.362 55.856 52.075 55.95 51.719 56.04 51.389 55.853 50.979 55.394 50.979H43.602C43.505 50.979 43.405 50.979 43.331 50.991 42.935 51.063 42.8 51.481 42.925 51.793 43.003 52.056 43.224 52.358 43.675 52.683 44.345 53.172 45.414 53.529 46.646 53.745 47.493 53.892 48.456 53.978 49.472 53.982A16.4 16.4 0 0 0 52.428 53.716C53.646 53.486 54.695 53.109 55.335 52.591M49.469 52.832A16 16 0 0 1 46.842 52.609C46.131 52.484 45.532 52.318 45.069 52.13H53.831A8.3 8.3 0 0 1 52.216 52.585 16 16 0 0 1 49.469 52.832" fill="#ed2647" data-fill-palette-color="accent"></path><path d="M53.316 44.849C52.638 44.352 51.81 44.449 51.138 44.953 50.838 45.178 50.491 45.333 49.461 45.333 48.428 45.333 48.084 45.178 47.785 44.953 47.111 44.449 46.283 44.352 45.603 44.849A1.3 1.3 0 0 0 45.402 45.025C44.885 45.591 45.73 46.368 46.25 45.803 46.539 45.592 46.789 45.661 47.094 45.875 47.916 46.452 48.402 47.043 49.461 47.064 50.519 47.042 51.004 46.452 51.826 45.875 52.131 45.66 52.381 45.592 52.668 45.803 53.189 46.369 54.036 45.591 53.519 45.025A1.2 1.2 0 0 0 53.316 44.849" fill="#ed2647" data-fill-palette-color="accent"></path><path d="M60.268 59.941S60.321 60.009 59.8 58.573C58.782 55.754 59.199 54.359 59.262 51.427 59.33 48.458 56.19 47.985 54.03 47.952 52.323 47.926 51.796 47.971 51.796 47.971 49.601 47.971 49.62 50.441 52.458 50.441 52.458 50.441 53.208 50.423 53.983 50.423 55.664 50.423 56.559 50.436 56.509 51.442 56.153 55.313 56.692 57.574 58.872 60.793 59.82 62.189 61.048 61.432 60.268 59.941" fill="#ed2647" data-fill-palette-color="accent"></path><path d="M71.77 36.347C72.514 36.53 72.789 35.412 72.044 35.229 70.45 34.835 68.893 36.605 68.091 38.631 68.026 38.785 67.337 40.392 68.419 40.476 68.909 40.514 69.475 39.943 69.671 39.255 69.798 38.811 69.744 38.416 69.559 38.187 70.3 36.823 71.253 36.22 71.77 36.347" fill="#ed2647" data-fill-palette-color="accent"></path><path d="M45.709 61.289C47.104 62.004 47.752 62.13 49.463 62.13H49.504C51.121 62.126 51.934 61.922 52.533 61.649 52.978 61.444 53.332 61.173 53.83 61.078A18 18 0 0 0 57.568 60.006 17 17 0 0 1 57.013 58.989 17 17 0 0 1 53.611 59.946 3.3 3.3 0 0 0 52.683 60.27C51.482 60.886 51.013 60.977 49.5 60.979H49.46C47.911 60.979 47.268 60.787 46.868 60.602 46.321 60.352 45.903 60.057 45.29 59.942L45.247 59.934A16.7 16.7 0 0 1 41.907 58.999C41.741 59.33 41.558 59.666 41.353 60.01 42.549 60.501 43.799 60.846 45.078 61.072 45.35 61.123 45.531 61.198 45.709 61.289" fill="#ed2647" data-fill-palette-color="accent"></path></g></svg></g></svg></g></svg></g><defs></defs></svg><rect width="395.52" height="80.81795983981986" fill="none" stroke="none" visibility="hidden"></rect></g></svg></g></svg>